<?xml version="1.0" encoding="UTF-8"?>
<svg xmlns="http://www.w3.org/2000/svg" xmlns:xlink="http://www.w3.org/1999/xlink" width="250px" height="250px" viewBox="0 0 250 250" version="1.1">
<defs>
<clipPath id="clip1">
  <path d="M 37.960938 77.851562 L 212.039062 77.851562 L 212.039062 172.5 L 37.960938 172.5 Z M 37.960938 77.851562 "/>
</clipPath>
<clipPath id="clip2">
  <path d="M 37.960938 77.851562 L 211.953125 77.851562 L 211.953125 172.351562 L 37.960938 172.351562 Z M 37.960938 77.851562 "/>
</clipPath>
<clipPath id="clip3">
  <path d="M 37.960938 77.851562 L 212 77.851562 L 212 142.585938 L 37.960938 142.585938 Z M 37.960938 77.851562 "/>
</clipPath>
</defs>
<g id="surface1">
<g clip-path="url(#clip1)" clip-rule="nonzero">
<path style=" stroke:none;fill-rule:nonzero;fill:rgb(6.27451%,6.27451%,6.27451%);fill-opacity:1;" d="M 37.960938 77.851562 L 212.089844 77.851562 L 212.089844 172.5 L 37.960938 172.5 Z M 37.960938 77.851562 "/>
</g>
<g clip-path="url(#clip2)" clip-rule="nonzero">
<path style="fill:none;stroke-width:8;stroke-linecap:butt;stroke-linejoin:miter;stroke:rgb(94.901961%,74.117647%,0%);stroke-opacity:1;stroke-miterlimit:4;" d="M 0.014875 -0.003635 L 348.1555 -0.003635 L 348.1555 189.29324 L 0.014875 189.29324 Z M 0.014875 -0.003635 " transform="matrix(0.5,0,0,0.5,37.9535,77.85338)"/>
</g>
<g clip-path="url(#clip3)" clip-rule="nonzero">
<path style=" stroke:none;fill-rule:nonzero;fill:rgb(94.901961%,74.117647%,0%);fill-opacity:1;" d="M 37.960938 77.851562 L 211.953125 77.851562 L 211.953125 142.585938 L 37.960938 142.585938 Z M 37.960938 77.851562 "/>
</g>
<path style=" stroke:none;fill-rule:nonzero;fill:rgb(6.27451%,6.27451%,6.27451%);fill-opacity:1;" d="M 68.367188 133.691406 C 66.347656 133.691406 64.171875 133.574219 61.84375 133.320312 C 59.511719 133.085938 57.539062 132.792969 55.917969 132.429688 L 55.917969 123.476562 C 60 123.789062 63.007812 123.945312 64.941406 123.945312 C 66.296875 123.945312 67.285156 123.90625 67.890625 123.808594 C 68.515625 123.71875 68.953125 123.523438 69.226562 123.222656 C 69.492188 122.949219 69.65625 122.578125 69.746094 122.089844 C 69.84375 121.609375 69.890625 120.929688 69.890625 120.039062 C 69.890625 118.742188 69.804688 117.804688 69.617188 117.257812 C 69.445312 116.699219 69.101562 116.296875 68.5625 116.035156 C 68.046875 115.78125 67.089844 115.539062 65.734375 115.3125 L 60.136719 114.257812 C 58.289062 113.898438 56.992188 112.636719 56.210938 110.460938 C 55.449219 108.289062 55.058594 105.234375 55.058594 101.28125 C 55.058594 97.402344 55.644531 94.453125 56.804688 92.402344 C 57.976562 90.371094 59.550781 89.003906 61.542969 88.320312 C 63.554688 87.65625 66.054688 87.304688 69.101562 87.304688 C 71.375 87.304688 73.496094 87.441406 75.421875 87.703125 C 77.351562 87.96875 78.867188 88.222656 79.960938 88.496094 L 79.960938 97.519531 C 77.335938 97.207031 74.628906 97.0625 71.855469 97.0625 C 70.585938 97.0625 69.648438 97.089844 69.054688 97.15625 C 68.46875 97.226562 68.007812 97.382812 67.714844 97.648438 C 67.402344 97.921875 67.195312 98.300781 67.089844 98.769531 C 66.972656 99.257812 66.914062 99.960938 66.914062 100.878906 C 66.914062 101.945312 66.972656 102.714844 67.089844 103.195312 C 67.195312 103.671875 67.421875 104.023438 67.773438 104.238281 C 68.132812 104.460938 68.730469 104.65625 69.550781 104.824219 L 74.375 105.75 C 75.859375 106.0625 77.128906 106.542969 78.144531 107.207031 C 79.1875 107.871094 80.039062 109.023438 80.683594 110.683594 C 81.386719 112.617188 81.75 115.226562 81.75 118.476562 C 81.75 122.910156 81.179688 126.230469 80.070312 128.429688 C 78.945312 130.625 77.460938 132.039062 75.617188 132.703125 C 73.769531 133.359375 71.359375 133.691406 68.367188 133.691406 Z M 68.367188 133.691406 "/>
<path style=" stroke:none;fill-rule:nonzero;fill:rgb(6.27451%,6.27451%,6.27451%);fill-opacity:1;" d="M 100.90625 133.164062 L 100.90625 115.632812 L 95.632812 115.632812 L 95.632812 133.164062 L 83.78125 133.164062 L 83.78125 87.820312 L 95.632812 87.820312 L 95.632812 105.097656 L 100.90625 105.097656 L 100.90625 87.820312 L 112.773438 87.820312 L 112.773438 133.164062 Z M 100.90625 133.164062 "/>
<path style=" stroke:none;fill-rule:nonzero;fill:rgb(6.27451%,6.27451%,6.27451%);fill-opacity:1;" d="M 130.164062 133.691406 C 125.332031 133.691406 121.894531 133 119.851562 131.621094 C 117.8125 130.234375 116.5625 128.085938 116.101562 125.164062 C 115.632812 122.246094 115.410156 117.351562 115.410156 110.488281 C 115.410156 103.601562 115.632812 98.710938 116.101562 95.8125 C 116.5625 92.898438 117.8125 90.761719 119.851562 89.375 C 121.894531 88 125.332031 87.304688 130.164062 87.304688 C 135 87.304688 138.4375 88 140.46875 89.375 C 142.519531 90.761719 143.789062 92.910156 144.257812 95.839844 C 144.746094 98.757812 145 103.640625 145 110.488281 C 145 117.351562 144.746094 122.226562 144.257812 125.125 C 143.789062 128.027344 142.519531 130.1875 140.46875 131.582031 C 138.4375 133 135 133.691406 130.164062 133.691406 Z M 130.164062 123.945312 C 131.21875 123.945312 131.921875 123.742188 132.285156 123.320312 C 132.625 122.890625 132.851562 121.882812 132.929688 120.292969 C 133.015625 118.679688 133.066406 115.421875 133.066406 110.488281 C 133.066406 105.578125 133.015625 102.324219 132.929688 100.710938 C 132.851562 99.109375 132.625 98.105469 132.285156 97.675781 C 131.921875 97.265625 131.21875 97.0625 130.164062 97.0625 C 129.109375 97.0625 128.429688 97.265625 128.085938 97.675781 C 127.753906 98.105469 127.546875 99.109375 127.460938 100.710938 C 127.382812 102.324219 127.335938 105.578125 127.335938 110.488281 C 127.335938 115.421875 127.382812 118.679688 127.460938 120.292969 C 127.546875 121.882812 127.753906 122.890625 128.085938 123.320312 C 128.429688 123.742188 129.109375 123.945312 130.164062 123.945312 Z M 130.164062 123.945312 "/>
<path style=" stroke:none;fill-rule:nonzero;fill:rgb(6.27451%,6.27451%,6.27451%);fill-opacity:1;" d="M 174.109375 133.164062 L 170.957031 105.359375 L 170.421875 105.359375 L 167.265625 133.164062 L 151.179688 133.164062 L 145.644531 87.820312 L 157.507812 87.820312 L 159.804688 120.90625 L 160.410156 120.90625 L 164.09375 87.820312 L 177.664062 87.820312 L 181.484375 120.90625 L 182.089844 120.90625 L 184.0625 87.820312 L 195.789062 87.820312 L 190.195312 133.164062 Z M 174.109375 133.164062 "/>
<path style=" stroke:none;fill-rule:nonzero;fill:rgb(94.901961%,74.117647%,0%);fill-opacity:1;" d="M 113.757812 150.304688 L 113.757812 163.445312 L 111.894531 163.445312 L 111.894531 157.597656 L 104.335938 157.597656 L 104.335938 163.445312 L 102.460938 163.445312 L 102.460938 150.304688 L 104.335938 150.304688 L 104.335938 155.957031 L 111.894531 155.957031 L 111.894531 150.304688 Z M 113.757812 150.304688 "/>
<path style=" stroke:none;fill-rule:nonzero;fill:rgb(94.901961%,74.117647%,0%);fill-opacity:1;" d="M 125.5 163.585938 C 123.75 163.585938 122.382812 163.09375 121.40625 162.089844 C 120.421875 161.09375 119.929688 159.65625 119.929688 157.78125 L 119.929688 150.304688 L 121.816406 150.304688 L 121.816406 157.703125 C 121.816406 160.515625 123.054688 161.921875 125.515625 161.921875 C 126.71875 161.921875 127.636719 161.582031 128.261719 160.878906 C 128.90625 160.1875 129.21875 159.121094 129.21875 157.703125 L 129.21875 150.304688 L 131.046875 150.304688 L 131.046875 157.78125 C 131.046875 159.667969 130.554688 161.113281 129.578125 162.101562 C 128.601562 163.09375 127.246094 163.585938 125.5 163.585938 Z M 125.5 163.585938 "/>
<path style=" stroke:none;fill-rule:nonzero;fill:rgb(94.901961%,74.117647%,0%);fill-opacity:1;" d="M 146.09375 156.632812 C 146.855469 156.84375 147.453125 157.234375 147.890625 157.792969 C 148.328125 158.339844 148.546875 159.042969 148.546875 159.882812 C 148.546875 161.035156 148.125 161.90625 147.257812 162.519531 C 146.40625 163.144531 145.15625 163.445312 143.515625 163.445312 L 137.246094 163.445312 L 137.246094 150.304688 L 143.144531 150.304688 C 144.640625 150.304688 145.800781 150.605469 146.621094 151.210938 C 147.441406 151.816406 147.851562 152.648438 147.851562 153.703125 C 147.851562 154.394531 147.6875 154.992188 147.375 155.488281 C 147.050781 155.976562 146.621094 156.367188 146.09375 156.632812 Z M 139.121094 151.835938 L 139.121094 156.035156 L 142.976562 156.035156 C 143.9375 156.035156 144.6875 155.851562 145.195312 155.488281 C 145.710938 155.136719 145.976562 154.609375 145.976562 153.925781 C 145.976562 153.234375 145.710938 152.714844 145.195312 152.363281 C 144.6875 152.011719 143.9375 151.835938 142.976562 151.835938 Z M 143.445312 161.921875 C 144.511719 161.921875 145.304688 161.75 145.839844 161.40625 C 146.375 161.046875 146.660156 160.488281 146.660156 159.746094 C 146.660156 158.28125 145.585938 157.539062 143.445312 157.539062 L 139.121094 157.539062 L 139.121094 161.921875 Z M 143.445312 161.921875 "/>
</g>
</svg>
