<?xml version="1.0" encoding="UTF-8"?>
<svg xmlns="http://www.w3.org/2000/svg" xmlns:xlink="http://www.w3.org/1999/xlink" width="100px" height="100px" viewBox="0 0 100 100" version="1.1">
<defs>
<clipPath id="clip1">
  <path d="M 15.183594 31.140625 L 84.816406 31.140625 L 84.816406 69 L 15.183594 69 Z M 15.183594 31.140625 "/>
</clipPath>
<clipPath id="clip2">
  <path d="M 15.183594 31.140625 L 84.78125 31.140625 L 84.78125 68.941406 L 15.183594 68.941406 Z M 15.183594 31.140625 "/>
</clipPath>
<clipPath id="clip3">
  <path d="M 15.183594 31.140625 L 84.800781 31.140625 L 84.800781 57.035156 L 15.183594 57.035156 Z M 15.183594 31.140625 "/>
</clipPath>
</defs>
<g id="surface1">
<g clip-path="url(#clip1)" clip-rule="nonzero">
<path style=" stroke:none;fill-rule:nonzero;fill:rgb(6.27451%,6.27451%,6.27451%);fill-opacity:1;" d="M 15.183594 31.140625 L 84.835938 31.140625 L 84.835938 69 L 15.183594 69 Z M 15.183594 31.140625 "/>
</g>
<g clip-path="url(#clip2)" clip-rule="nonzero">
<path style="fill:none;stroke-width:8;stroke-linecap:butt;stroke-linejoin:miter;stroke:rgb(94.901961%,74.117647%,0%);stroke-opacity:1;stroke-miterlimit:4;" d="M 0.0109688 -0.00363611 L 348.1555 -0.00363611 L 348.1555 189.293239 L 0.0109688 189.293239 Z M 0.0109688 -0.00363611 " transform="matrix(0.2,0,0,0.2,15.1814,31.141352)"/>
</g>
<g clip-path="url(#clip3)" clip-rule="nonzero">
<path style=" stroke:none;fill-rule:nonzero;fill:rgb(94.901961%,74.117647%,0%);fill-opacity:1;" d="M 15.183594 31.140625 L 84.78125 31.140625 L 84.78125 57.035156 L 15.183594 57.035156 Z M 15.183594 31.140625 "/>
</g>
<path style=" stroke:none;fill-rule:nonzero;fill:rgb(6.27451%,6.27451%,6.27451%);fill-opacity:1;" d="M 27.347656 53.476562 C 26.539062 53.476562 25.667969 53.429688 24.738281 53.328125 C 23.804688 53.234375 23.015625 53.117188 22.367188 52.972656 L 22.367188 49.390625 C 24 49.515625 25.203125 49.578125 25.976562 49.578125 C 26.519531 49.578125 26.914062 49.5625 27.15625 49.523438 C 27.40625 49.488281 27.582031 49.410156 27.691406 49.289062 C 27.796875 49.179688 27.863281 49.03125 27.898438 48.835938 C 27.9375 48.644531 27.957031 48.371094 27.957031 48.015625 C 27.957031 47.496094 27.921875 47.121094 27.847656 46.902344 C 27.777344 46.679688 27.640625 46.519531 27.425781 46.414062 C 27.21875 46.3125 26.835938 46.214844 26.292969 46.125 L 24.054688 45.703125 C 23.316406 45.558594 22.796875 45.054688 22.484375 44.183594 C 22.179688 43.316406 22.023438 42.09375 22.023438 40.511719 C 22.023438 38.960938 22.257812 37.78125 22.722656 36.960938 C 23.191406 36.148438 23.820312 35.601562 24.617188 35.328125 C 25.421875 35.0625 26.421875 34.921875 27.640625 34.921875 C 28.550781 34.921875 29.398438 34.976562 30.167969 35.082031 C 30.941406 35.1875 31.546875 35.289062 31.984375 35.398438 L 31.984375 39.007812 C 30.933594 38.882812 29.851562 38.824219 28.742188 38.824219 C 28.234375 38.824219 27.859375 38.835938 27.621094 38.863281 C 27.386719 38.890625 27.203125 38.953125 27.085938 39.058594 C 26.960938 39.167969 26.878906 39.320312 26.835938 39.507812 C 26.789062 39.703125 26.765625 39.984375 26.765625 40.351562 C 26.765625 40.777344 26.789062 41.085938 26.835938 41.277344 C 26.878906 41.46875 26.96875 41.609375 27.109375 41.695312 C 27.253906 41.785156 27.492188 41.863281 27.820312 41.929688 L 29.75 42.300781 C 30.34375 42.425781 30.851562 42.617188 31.257812 42.882812 C 31.675781 43.148438 32.015625 43.609375 32.273438 44.273438 C 32.554688 45.046875 32.699219 46.089844 32.699219 47.390625 C 32.699219 49.164062 32.472656 50.492188 32.027344 51.371094 C 31.578125 52.25 30.984375 52.816406 30.246094 53.082031 C 29.507812 53.34375 28.542969 53.476562 27.347656 53.476562 Z M 27.347656 53.476562 "/>
<path style=" stroke:none;fill-rule:nonzero;fill:rgb(6.27451%,6.27451%,6.27451%);fill-opacity:1;" d="M 40.363281 53.265625 L 40.363281 46.253906 L 38.253906 46.253906 L 38.253906 53.265625 L 33.511719 53.265625 L 33.511719 35.128906 L 38.253906 35.128906 L 38.253906 42.039062 L 40.363281 42.039062 L 40.363281 35.128906 L 45.109375 35.128906 L 45.109375 53.265625 Z M 40.363281 53.265625 "/>
<path style=" stroke:none;fill-rule:nonzero;fill:rgb(6.27451%,6.27451%,6.27451%);fill-opacity:1;" d="M 52.066406 53.476562 C 50.132812 53.476562 48.757812 53.199219 47.941406 52.648438 C 47.125 52.09375 46.625 51.234375 46.441406 50.066406 C 46.253906 48.898438 46.164062 46.941406 46.164062 44.195312 C 46.164062 41.441406 46.253906 39.484375 46.441406 38.324219 C 46.625 37.160156 47.125 36.304688 47.941406 35.75 C 48.757812 35.199219 50.132812 34.921875 52.066406 34.921875 C 54 34.921875 55.375 35.199219 56.1875 35.75 C 57.007812 36.304688 57.515625 37.164062 57.703125 38.335938 C 57.898438 39.503906 58 41.457031 58 44.195312 C 58 46.941406 57.898438 48.890625 57.703125 50.050781 C 57.515625 51.210938 57.007812 52.074219 56.1875 52.632812 C 55.375 53.199219 54 53.476562 52.066406 53.476562 Z M 52.066406 49.578125 C 52.488281 49.578125 52.769531 49.496094 52.914062 49.328125 C 53.050781 49.15625 53.140625 48.753906 53.171875 48.117188 C 53.207031 47.472656 53.226562 46.167969 53.226562 44.195312 C 53.226562 42.230469 53.207031 40.929688 53.171875 40.285156 C 53.140625 39.644531 53.050781 39.242188 52.914062 39.070312 C 52.769531 38.90625 52.488281 38.824219 52.066406 38.824219 C 51.644531 38.824219 51.371094 38.90625 51.234375 39.070312 C 51.101562 39.242188 51.019531 39.644531 50.984375 40.285156 C 50.953125 40.929688 50.933594 42.230469 50.933594 44.195312 C 50.933594 46.167969 50.953125 47.472656 50.984375 48.117188 C 51.019531 48.753906 51.101562 49.15625 51.234375 49.328125 C 51.371094 49.496094 51.644531 49.578125 52.066406 49.578125 Z M 52.066406 49.578125 "/>
<path style=" stroke:none;fill-rule:nonzero;fill:rgb(6.27451%,6.27451%,6.27451%);fill-opacity:1;" d="M 69.644531 53.265625 L 68.382812 42.144531 L 68.167969 42.144531 L 66.90625 53.265625 L 60.472656 53.265625 L 58.257812 35.128906 L 63.003906 35.128906 L 63.921875 48.363281 L 64.164062 48.363281 L 65.636719 35.128906 L 71.066406 35.128906 L 72.59375 48.363281 L 72.835938 48.363281 L 73.625 35.128906 L 78.316406 35.128906 L 76.078125 53.265625 Z M 69.644531 53.265625 "/>
<path style=" stroke:none;fill-rule:nonzero;fill:rgb(94.901961%,74.117647%,0%);fill-opacity:1;" d="M 45.503906 60.121094 L 45.503906 65.378906 L 44.757812 65.378906 L 44.757812 63.039062 L 41.734375 63.039062 L 41.734375 65.378906 L 40.984375 65.378906 L 40.984375 60.121094 L 41.734375 60.121094 L 41.734375 62.382812 L 44.757812 62.382812 L 44.757812 60.121094 Z M 45.503906 60.121094 "/>
<path style=" stroke:none;fill-rule:nonzero;fill:rgb(94.901961%,74.117647%,0%);fill-opacity:1;" d="M 50.199219 65.433594 C 49.5 65.433594 48.953125 65.238281 48.5625 64.835938 C 48.167969 64.4375 47.972656 63.863281 47.972656 63.113281 L 47.972656 60.121094 L 48.726562 60.121094 L 48.726562 63.082031 C 48.726562 64.207031 49.222656 64.769531 50.207031 64.769531 C 50.6875 64.769531 51.054688 64.632812 51.304688 64.351562 C 51.5625 64.074219 51.6875 63.648438 51.6875 63.082031 L 51.6875 60.121094 L 52.417969 60.121094 L 52.417969 63.113281 C 52.417969 63.867188 52.222656 64.445312 51.832031 64.839844 C 51.441406 65.238281 50.898438 65.433594 50.199219 65.433594 Z M 50.199219 65.433594 "/>
<path style=" stroke:none;fill-rule:nonzero;fill:rgb(94.901961%,74.117647%,0%);fill-opacity:1;" d="M 58.4375 62.652344 C 58.742188 62.738281 58.980469 62.894531 59.15625 63.117188 C 59.332031 63.335938 59.417969 63.617188 59.417969 63.953125 C 59.417969 64.414062 59.25 64.761719 58.902344 65.007812 C 58.5625 65.257812 58.0625 65.378906 57.40625 65.378906 L 54.898438 65.378906 L 54.898438 60.121094 L 57.257812 60.121094 C 57.855469 60.121094 58.320312 60.242188 58.648438 60.484375 C 58.976562 60.726562 59.140625 61.058594 59.140625 61.480469 C 59.140625 61.757812 59.074219 61.996094 58.949219 62.195312 C 58.820312 62.390625 58.648438 62.546875 58.4375 62.652344 Z M 55.648438 60.734375 L 55.648438 62.414062 L 57.191406 62.414062 C 57.574219 62.414062 57.875 62.339844 58.078125 62.195312 C 58.285156 62.054688 58.390625 61.84375 58.390625 61.570312 C 58.390625 61.292969 58.285156 61.085938 58.078125 60.945312 C 57.875 60.804688 57.574219 60.734375 57.191406 60.734375 Z M 57.378906 64.769531 C 57.804688 64.769531 58.121094 64.699219 58.335938 64.5625 C 58.550781 64.417969 58.664062 64.195312 58.664062 63.898438 C 58.664062 63.3125 58.234375 63.015625 57.378906 63.015625 L 55.648438 63.015625 L 55.648438 64.769531 Z M 57.378906 64.769531 "/>
</g>
</svg>
